<?xml version="1.0" encoding="utf-8"?>
<!-- Generator: Adobe Illustrator 26.0.0, SVG Export Plug-In . SVG Version: 6.00 Build 0)  -->
<svg version="1.1" xmlns="http://www.w3.org/2000/svg" xmlns:xlink="http://www.w3.org/1999/xlink" x="0px" y="0px"
	 viewBox="0 0 1920 1080" style="enable-background:new 0 0 1920 1080;" xml:space="preserve">
<g id="Layer_2">
</g>
<g id="Layer_1">
	<g>
		<path d="M891.89,637.19c-0.15,19.67-0.46,35-6.21,49.53c-9.13,23.05-26.87,34.82-50.89,37.78c-15.83,1.95-31.57-0.37-47.29-1.97
			c-17.66-1.8-35.27-4.07-53.1-3.52c-12.36,0.38-23.22,4.47-31.99,13.02c-3.2,3.12-5.22,7.64-7.17,11.81
			c-2.55,5.48-3.56,6.5-9.6,6.5c-12.84,0.01-25.68-0.1-38.52,0.04c-4.11,0.05-6.37-1.42-7.67-5.44
			c-5.32-16.4-17.34-24.39-33.95-26.56c-13.25-1.73-26.34,0.02-39.48,1.29c-17.13,1.66-34.24,3.69-51.41,4.58
			c-11.37,0.59-22.78-0.86-33.51-5.32c-18.99-7.9-28.87-23.23-34.1-42.22c-5.22-18.95-5.03-38.15-2.04-57.39
			c1.15-7.4,2.71-14.74,4.32-22.06c1.39-6.28,3.44-7.62,9.64-6.07c11.16,2.79,22.27,5.8,33.36,8.87c4.86,1.35,5.77,3.41,4.76,8.9
			c-0.82,4.44-1.88,8.89-2.16,13.37c-1.04,16.71,7.07,23.4,23.01,23.87c9.51,0.28,19.1-1.33,28.61-2.49
			c17.25-2.1,34.48-4.38,51.92-3.48c25.56,1.32,47.05,10.68,62.4,31.97c0.76,1.05,1.52,2.11,2.21,3.2c3.46,5.5,3.66,5.51,7.52-0.07
			c14.42-20.84,34.37-31.97,59.51-34.45c18.9-1.87,37.48,0.5,56.16,2.74c11.28,1.36,22.72,2.4,34.05,2.09
			c12.45-0.33,19.21-8.45,18.77-20.99c-0.2-5.66-1.42-11.29-2.36-16.9c-0.82-4.9,0.02-6.83,4.7-8.18c12.33-3.55,24.68-7,37.07-10.36
			c4.32-1.17,6.48,0.37,7.74,5.29C890.16,609.97,892.18,625.61,891.89,637.19z"/>
		<path d="M536.47,513.18c0.93,0.98,1.54,1.82,2.32,2.41c12.15,9.19,14.6,21.94,13.32,36.09c-0.68,7.6-1.54,15.2-1.84,22.82
			c-0.28,7.27,2.23,9.55,9.39,9.65c1.56,0.02,3.11,0,4.66,0.1c3.03,0.21,5.13,1.69,5.92,4.71c0.84,3.25,1.69,6.51,2.37,9.8
			c0.57,2.76-0.24,5.07-3.29,5.61c-11.91,2.13-23.85,3.73-35.66-0.48c-11.76-4.19-17.41-11.77-17.18-24.38
			c0.2-10.99,1.58-21.95,1.85-32.94c0.11-4.65-0.7-9.54-2.23-13.93c-0.85-2.44-3.83-4.4-6.25-5.96c-2.78-1.8-4.37-3.84-4.29-7.22
			c0.1-4.02,0-8.04,0.01-12.06c0-3.84,1.54-6.88,5.1-8.47c4.96-2.22,6.81-6.14,7.52-11.31c1.4-10.18,0.09-20.17-1.35-30.17
			c-1.3-9.04-1.39-17.9,3.78-25.92c5.53-8.57,14.17-12.28,23.77-12.72c8.34-0.38,16.77,0.77,25.13,1.53
			c3.62,0.33,4.93,2.42,4.21,6.02c-0.87,4.32-1.94,8.6-3.02,12.87c-0.69,2.73-2.53,4.13-5.37,4.15c-2.33,0.02-4.67-0.01-7,0.04
			c-5.5,0.13-7.46,1.95-7.21,7.29c0.33,6.98,1.29,13.94,1.44,20.92c0.15,6.96,0.4,14.06-0.77,20.86
			c-1.43,8.31-6.06,15.07-13.79,19.25C537.58,511.97,537.27,512.42,536.47,513.18z"/>
		<path d="M665.88,278.33c6.13,0.95,13.13,1.49,19.85,3.17c16.73,4.19,27.58,14.71,31.86,31.59c3.2,12.66,3.56,25.3-0.79,37.82
			c-5.25,15.1-15.47,24.81-31.11,28.59c-12.76,3.09-25.61,3.26-38.42,0.52c-20.34-4.34-32.25-17.01-36.04-37.37
			c-1.73-9.26-1.56-18.48,0.62-27.69c4.55-19.23,16.83-30.37,35.85-34.31C653.37,279.49,659.2,279.16,665.88,278.33z M689.1,331.01
			c-0.22-0.08-0.44-0.16-0.66-0.25c-0.37-3.33-0.57-6.69-1.15-9.99c-2.32-13.19-6.73-18.38-18.06-19.87
			c-13.59-1.79-22.15,2.59-25.58,16.34c-2.37,9.51-1.87,18.89,0.55,28.33c2.16,8.45,8.8,14.35,17.57,15.08
			c11.56,0.97,19.84-2.93,22.98-11.73C686.79,343.17,687.69,337,689.1,331.01z"/>
		<path d="M825.3,452.68c-0.69,8.24-1.44,16.48-2.03,24.73c-0.2,2.71-0.08,5.44,0.02,8.16c0.23,6.76,3.11,11.99,9.34,14.96
			c2.85,1.36,4,3.38,3.92,6.46c-0.11,4.15-0.09,8.3,0.02,12.44c0.08,2.79-0.98,4.72-3.51,5.91c-7.04,3.3-10.16,9.08-9.83,16.61
			c0.48,11.12,0.83,22.28,2.09,33.32c1.74,15.23-7.18,27.7-22.35,30.36c-9.89,1.73-19.61,0.26-29.35-1.04
			c-3.12-0.42-4.79-2.36-3.8-5.85c0.92-3.23,1.69-6.5,2.49-9.76c0.83-3.36,2.84-5.09,6.4-4.91c1.81,0.09,3.63,0.07,5.44,0.04
			c5.81-0.1,8.56-2.38,8.38-8.25c-0.26-8.26-1.01-16.52-1.95-24.73c-1.57-13.77,1.44-25.69,12.7-34.73c3.3-2.65,3.32-3.54-0.08-6.29
			c-11.39-9.19-14.08-21.41-12.65-35.2c0.82-7.97,1.75-15.95,2.03-23.95c0.25-7.1-3.53-10.04-10.63-9.19
			c-7.57,0.91-7.68,0.91-9.83-6.28c-0.92-3.09-1.52-6.27-2.28-9.41c-0.51-2.13,0.17-3.49,2.38-4.08
			c13.17-3.52,26.29-4.42,39.17,1.08c8.98,3.84,12.7,11.35,13.47,20.62c0.24,2.96,0.04,5.96,0.04,8.94
			C825.03,452.66,825.16,452.67,825.3,452.68z"/>
		<path d="M702.31,589.13c-2.46,0-4.93-0.04-7.39,0.01c-8.01,0.16-9.41-0.76-12.27-8.42c-7.96-21.34-15.9-42.69-23.85-64.03
			c-11.16-29.95-22.33-59.9-33.49-89.85c-0.45-1.21-0.8-2.46-1.17-3.7c-0.9-3.01,0.53-4.67,3.37-4.72c7-0.11,14-0.03,21,0.15
			c5.48,0.14,8.69,3.32,10.53,8.29c4.58,12.38,9.27,24.72,13.87,37.09c14.48,38.94,28.95,77.88,43.41,116.82
			c2.84,7.65,2.36,8.32-5.83,8.36C707.76,589.14,705.04,589.13,702.31,589.13z"/>
		<path d="M1079.22,501.67c0,22.56,1.45,44.31-0.44,65.77c-1.62,18.37-17.25,30.7-35.75,31.79c-6.26,0.37-12.76,0.22-18.86-1.06
			c-21.25-4.48-29.77-21.54-29.88-38.85c-0.01-1.09,2.01-3.06,3.19-3.13c5.31-0.34,10.65-0.12,15.99-0.16
			c2.85-0.02,3.4,1.6,3.73,4.12c1.86,14.24,11.59,20.87,25.53,17.62c7.73-1.8,13.37-8.37,13.64-17.03
			c0.38-11.82,0.13-23.66,0.25-35.49c0.03-2.8-1.06-3.85-3.85-3.8c-6.5,0.11-13-0.1-19.49,0.08c-3.13,0.09-4.41-0.88-4.61-4.17
			c-0.98-15.7-1.06-15.7,14.52-15.7C1055.29,501.67,1067.41,501.67,1079.22,501.67z"/>
		<path d="M1319.85,598.43c-5.89,0-11.55,0.44-17.07-0.27c-1.62-0.21-2.82-3.66-4.23-5.66c-19.13,10.35-35.39,8.98-46.02-4.08
			c-10.89-13.38-10.88-35.34,0-48.69c10.68-13.09,26.7-14.44,46.94-3.56c-0.37-7.25,4.48-6.72,9.25-6.52
			c3.61,0.15,7.23,0.03,11.13,0.03C1319.85,552.8,1319.85,575.33,1319.85,598.43z M1297.74,564.33c0.08-10.09-5.74-16.29-15.3-16.31
			c-9.28-0.02-15.32,6.18-15.4,15.77c-0.07,9.99,5.89,16.33,15.36,16.31C1291.8,580.08,1297.67,574.05,1297.74,564.33z"/>
		<path d="M1127.95,599.45c-32.54,0.34-43.77-28.31-34.47-50.61c5.28-12.65,15.84-18.46,28.88-19.92c4.89-0.55,10.04-0.3,14.89,0.57
			c20.17,3.58,30.01,19.35,28.52,37.78c-1.56,19.4-15.65,31.92-35.33,32.19C1129.62,599.45,1128.78,599.44,1127.95,599.45z
			 M1113.04,563.94c-0.03,9.84,5.81,16.13,15.02,16.16c9.14,0.03,15.31-6.36,15.35-15.92c0.04-9.62-6.01-16.08-15.11-16.15
			C1119.03,547.96,1113.07,554.17,1113.04,563.94z"/>
		<path d="M1437.86,529.67c0,23.04,0,45.45,0,68.69c-5.86,0-11.8,0.33-17.65-0.26c-1.29-0.13-2.25-3.5-2.94-4.66
			c-5.68,1.94-11.41,5.12-17.4,5.73c-18.12,1.84-30.24-8.63-31.2-26.87c-0.69-12.95-0.13-25.97-0.24-38.96
			c-0.02-2.87,1.19-3.77,3.9-3.7c4.83,0.13,9.66,0.19,14.49-0.02c3.3-0.14,4.34,1.15,4.3,4.34c-0.13,10.82-0.08,21.65-0.03,32.47
			c0.04,8.84,3.84,13.47,11.05,13.65c7.88,0.2,13.13-5.01,13.33-13.51c0.16-6.99-0.05-13.99,0.1-20.98
			c0.11-5.1-1.35-12.12,1.34-14.75c2.73-2.66,9.7-0.99,14.81-1.17C1433.68,529.61,1435.63,529.67,1437.86,529.67z"/>
		<path d="M1169.48,529.69c8.42,0,15.57-0.16,22.7,0.13c1.42,0.06,3.22,1.55,4.06,2.87c3.12,4.89,5.92,10,9.21,15.66
			c3-5.1,5.93-9.78,8.55-14.64c1.6-2.96,3.57-4.31,7.1-4.13c6.28,0.31,12.59,0.09,19.86,0.09c-1.25,2.36-1.99,3.95-2.9,5.44
			c-5.04,8.24-9.98,16.55-15.26,24.64c-1.97,3.02-1.75,5.23,0.22,8.08c5.68,8.22,11.11,16.61,16.62,24.95
			c0.98,1.48,1.86,3.03,3.44,5.64c-8.76,0-16.48,0.14-24.18-0.15c-1.2-0.04-2.61-1.86-3.43-3.16c-3.37-5.31-6.54-10.75-10.16-16.75
			c-3.63,5.85-7.06,11.08-10.18,16.49c-1.62,2.82-3.66,3.82-6.88,3.7c-6.46-0.24-12.94-0.07-20.54-0.07
			c1.28-2.27,2.02-3.8,2.95-5.21c5.77-8.77,11.49-17.56,17.43-26.21c1.68-2.44,1.65-4.28,0.08-6.73
			c-5.32-8.26-10.44-16.65-15.61-25.01C1171.66,533.82,1170.87,532.23,1169.48,529.69z"/>
		<path d="M1476.95,548.93c-9.27,0-17.15,0-25.29,0c0-6.72,0-12.64,0-18.91c19.1,0,37.98,0,58.48,0c-1.36,4.18-1.86,8.14-3.8,11.2
			c-7.04,11.1-14.56,21.9-21.89,32.82c-0.9,1.34-1.7,2.74-3.24,5.23c10.13,0,19.3,0,28.67,0c0,6.7,0,12.48,0,18.93
			c-1.98,0.09-3.89,0.26-5.81,0.26c-16.49,0.02-32.98,0.06-49.46-0.05c-1.95-0.01-5.47-0.78-5.54-1.48
			c-0.27-2.63-0.2-5.87,1.15-7.99c6.32-9.98,13.11-19.67,19.72-29.47C1472.03,556.37,1474.09,553.24,1476.95,548.93z"/>
		<path d="M1346.17,599.45c-7.87,0.03-12.9-4.69-12.85-12.03c0.05-7.07,5.05-11.71,12.64-11.74c7.61-0.03,13.14,5.07,13.05,12.03
			C1358.92,594.5,1353.55,599.41,1346.17,599.45z"/>
	</g>
</g>
</svg>
